<?xml version="1.0" encoding="UTF-8"?>
<svg id="_レイヤー_1" data-name=" レイヤー 1" xmlns="http://www.w3.org/2000/svg" viewBox="0 0 512 512">
  <defs>
    <style>
      .fg {
        fill: #000;
      }
      .fg {
        fill: #fff;
      }
      @media (prefers-color-scheme: dark) {
      .fg {
        fill: #fff;
      }
      .fg {
        fill: #000;
      }
      }
    </style>
  </defs>
  <rect class="bg" width="512" height="512"/>
  <path class="fg" d="M354.41,339.48c-21.65,20.81-50.02,32.25-80.14,32.25s-59.97-12.04-81.83-33.89c-13.71-13.71-23.56-30.27-28.99-48.33h173.92l44.67-67h-182.88l-38.17,57.25c-1.6-7.73-2.43-15.68-2.43-23.76,0-30.91,12.04-59.97,33.89-81.83,21.86-21.86,50.92-33.89,81.83-33.89s58.39,11.39,80.02,32.13l37.53-56.29c-31.77-26.73-72.78-42.84-117.55-42.84-100.91,0-182.72,81.81-182.72,182.72s81.81,182.72,182.72,182.72c44.83,0,85.88-16.15,117.67-42.95l-37.53-56.3h0Z"/>
</svg>