<?xml version="1.0" standalone="no"?>
<!DOCTYPE svg PUBLIC "-//W3C//DTD SVG 20010904//EN"
 "http://www.w3.org/TR/2001/REC-SVG-20010904/DTD/svg10.dtd">
<svg version="1.0" xmlns="http://www.w3.org/2000/svg"
 width="700.000000pt" height="700.000000pt" viewBox="0 0 700.000000 700.000000"
 preserveAspectRatio="xMidYMid meet">
<metadata>
Created by potrace 1.14, written by Peter Selinger 2001-2017
</metadata>
<g transform="translate(0.000000,700.000000) scale(0.100000,-0.100000)"
fill="#000000" stroke="none">
<path d="M960 6980 c-257 -48 -466 -162 -642 -349 -166 -176 -264 -375 -306
-624 -9 -53 -9 -4946 0 -5007 27 -182 109 -382 216 -526 108 -146 277 -285
427 -354 123 -57 190 -80 270 -94 17 -3 41 -9 55 -13 14 -4 1134 -9 2490 -10
2688 -3 2533 -6 2720 54 419 133 725 490 797 932 10 59 10 4937 1 5011 -31
237 -149 474 -326 653 -163 166 -359 272 -595 322 l-112 24 -2450 -1 c-2307 0
-2456 -1 -2545 -18z"/>
</g>
</svg>
