<?xml version="1.0" encoding="UTF-8"?>
<svg id="logo" data-name="レイヤー 1" xmlns="http://www.w3.org/2000/svg" viewBox="0 0 233.1 38.67">
  <path d="M67.27,8.77v5.54c-6.32,0-8.01,1.53-8.01,7.18v9.56h-5.96V9.35h5.66v2.83h.7c1.32-2.07,3.66-3.42,7.6-3.42h0ZM69.79,31.04h5.96V1.09h-5.96v29.95ZM94.03,9.35l-4.43,13.88h-.71l-4.59-13.88h-6.38l7.63,20.34c.17.42.25.88.25,1.34,0,1.34-.75,2.56-2.31,2.73h-3.48v4.91h3.65c4.07,0,6.17-1.43,7.47-4.91l9.06-24.41h-6.17.01ZM49.14,15.23l-.02,15.81h-5.7v-2.1h-.75c-1.5,1.93-3.86,2.68-6.55,2.68-4.15,0-7.38-2.06-7.38-6.5.05-6.15,5.58-7.12,9.97-7.12h4.46v-2.31c0-2.52-1.76-2.94-3.86-2.94-2.31,0-3.73.92-3.94,3.27h-5.96c.34-5.54,5.33-7.26,10.19-7.26,4.32,0,9.54,1.26,9.54,6.47ZM43.16,22.65v-1.23h-4.95c-1.88,0-3.52,1.27-3.52,3.45s1.72,2.77,3.65,2.77c4.66,0,4.82-3.65,4.82-4.99ZM9.45,13.12l-3.92,5.88h16.06l3.92-5.88H9.45ZM16.05,26.22c-2.72,0-5.27-1.06-7.19-2.98-1.92-1.92-2.98-4.47-2.98-7.19s1.06-5.27,2.98-7.19c1.92-1.92,4.47-2.98,7.19-2.98s5.13,1,7.03,2.82l3.3-4.94c-2.79-2.35-6.39-3.76-10.33-3.76C7.19,0,0,7.2,0,16.06s7.19,16.05,16.05,16.05c3.94,0,7.54-1.42,10.34-3.77l-3.3-4.95c-1.9,1.83-4.39,2.83-7.04,2.83ZM106.79,21.1c-.13,7.38,6.12,10.65,12.75,10.65,8.18,0,12.46-4.11,12.46-9.6,0-6.75-6.67-8.22-8.89-8.72-7.51-1.89-8.93-2.22-8.93-4.53,0-2.52,2.43-3.4,4.53-3.4,3.19,0,5.7.96,5.91,4.53h6.38c0-6.92-5.75-9.65-12-9.65-5.41,0-11.2,2.89-11.2,9.06,0,5.54,4.49,7.42,8.93,8.51,4.36,1.22,8.89,1.68,8.89,4.95,0,3.06-3.52,3.73-5.83,3.73-3.52,0-6.63-1.55-6.63-5.54h-6.38.01ZM142.81,2.85h-5.96v6.5h-3.61v3.98h3.61v12.79c0,4.36,3.15,5.16,6.84,5.16,1.17,0,2.48-.04,3.48-.21v-4.66c-.54.13-1.17.17-1.85.17-2.01,0-2.52-.5-2.52-2.52v-10.74h4.36v-3.98h-4.36V2.85h0ZM170.37,9.35h-5.96v11.37c0,4.4-1.38,6.21-4.61,6.21-2.81,0-3.82-1.76-3.82-5.33v-12.25h-5.96v13.34c0,5.37,1.59,8.93,7.93,8.93,2.52,0,5.12-1.13,6.63-3.61h.13v3.02h5.66V9.35ZM190.37,31.04h5.66V1.09h-5.96v10.91h-.08c-1.34-2.14-3.86-3.23-6.42-3.23-6.38,0-9.61,5.41-9.61,11.24s3.19,11.62,9.73,11.62c2.81,0,5.2-1.01,6.59-3.36h.08v2.77h0ZM190.29,20.13c0,3.57-1.22,7-5.12,7-3.69,0-5.24-3.57-5.24-6.96s1.34-6.92,5.24-6.92,5.12,3.36,5.12,6.88ZM206.64,1.09h-5.96v4.91h5.96V1.09ZM200.68,31.04h5.96V9.35h-5.96v21.68h0ZM210.66,20.22c0,6.88,4.4,11.41,11.2,11.41s11.24-4.53,11.24-11.41-4.4-11.45-11.24-11.45-11.2,4.53-11.2,11.45ZM216.62,20.22c0-3.48,1.22-6.96,5.24-6.96s5.29,3.48,5.29,6.96-1.22,6.92-5.29,6.92-5.24-3.44-5.24-6.92Z"/>
</svg>